<svg width="300" height="300" viewBox="0 0 300 300" fill="none" xmlns="http://www.w3.org/2000/svg">
<circle cx="150" cy="150" r="150" fill="#04448D"/>
<path d="M106.292 142.576C106.292 133.506 98.9711 126.185 89.9017 126.185C80.8324 126.185 73.5114 133.506 73.5114 142.576C73.5114 151.645 80.8324 158.966 89.9017 158.966C98.9711 158.966 106.292 151.645 106.292 142.576ZM182.781 87.9412C182.781 78.8718 175.459 71.5508 166.39 71.5508H133.609C124.54 71.5508 117.219 78.8718 117.219 87.9412C117.219 97.0105 124.54 104.332 133.609 104.332H166.39C175.459 104.332 182.781 97.0105 182.781 87.9412ZM111.756 180.82C102.686 180.82 95.3652 188.141 95.3652 197.21C95.3652 206.28 102.686 213.601 111.756 213.601C120.825 213.601 128.146 206.28 128.146 197.21C128.146 188.141 120.825 180.82 111.756 180.82ZM150 27.8431C83.6734 27.8431 29.8037 81.7128 29.8037 148.039C29.8037 214.366 83.6734 268.235 150 268.235C216.326 268.235 270.196 214.366 270.196 148.039C270.196 81.7128 216.326 27.8431 150 27.8431ZM150 246.381C95.8023 246.381 51.6575 202.237 51.6575 148.039C51.6575 93.8417 95.8023 49.697 150 49.697C204.197 49.697 248.342 93.8417 248.342 148.039C248.342 202.237 204.197 246.381 150 246.381ZM210.098 126.185C201.028 126.185 193.707 133.506 193.707 142.576C193.707 151.645 201.028 158.966 210.098 158.966C219.167 158.966 226.488 151.645 226.488 142.576C226.488 133.506 219.167 126.185 210.098 126.185ZM188.244 180.82C179.175 180.82 171.854 188.141 171.854 197.21C171.854 206.28 179.175 213.601 188.244 213.601C197.313 213.601 204.634 206.28 204.634 197.21C204.634 188.141 197.313 180.82 188.244 180.82Z" fill="#F6D514"/>
</svg>
